<svg xmlns="http://www.w3.org/2000/svg" xmlns:xlink="http://www.w3.org/1999/xlink" viewBox="0 0 36 36">
<title>♾: infinity (U+267E) - emojiall.com</title>
<style>svg{stroke:#edf2f6;animation:dashoffset 10s both infinite,fill-opacity 10s both infinite,stroke-opacity 10s both infinite;stroke-dasharray:500%;stroke-dashoffset:500%}@keyframes stroke-opacity{2%,25%{stroke-opacity:.75;stroke-width:2%}100%,75%{stroke-opacity:0;stroke-width:0}}@keyframes fill-opacity{10%,25%{fill-opacity:0}0%,100%,50%{fill-opacity:1}}@keyframes dashoffset{0%,2%{stroke-dashoffset:500%}100%{stroke-dashoffset:0%}}</style>
<circle fill="#3B94D9" cx="18" cy="18" r="18"/>
<path fill="#FFF" d="M25.565 11.295c-2.116 0-4.195 1.322-5.799 2.712.609.669 1.021 1.198 1.147 1.364.172.227.423.534.733.882 1.236-1.084 2.689-2.044 3.919-2.044 2.09 0 3.79 1.7 3.79 3.79s-1.7 3.79-3.79 3.79c-2.337 0-5.484-3.456-6.402-4.668-.45-.596-4.521-5.826-8.729-5.826-3.697 0-6.705 3.008-6.705 6.705s3.008 6.704 6.705 6.704c2.055 0 4.073-1.248 5.657-2.594-.67-.726-1.122-1.307-1.255-1.483-.151-.199-.366-.462-.624-.757-1.204 1.032-2.594 1.919-3.778 1.919-2.09 0-3.79-1.7-3.79-3.79s1.7-3.79 3.79-3.79c2.338 0 5.484 3.456 6.402 4.668.45.596 4.521 5.826 8.729 5.826 3.697 0 6.704-3.007 6.704-6.704.001-3.696-3.006-6.704-6.704-6.704z"/>
<a xlink:href="https://www.emojiall.com/en/emoji/%E2%99%BE"><text x="36" y="34" font-size="1px" fill="#888da8" text-anchor="end" font-family="apple color emoji,segoe ui emoji,noto color emoji,android emoji,emojisymbols,emojione mozilla,twemoji mozilla,segoe ui symbol,Noto Color Emoji Compat,emoji,sans-serif">♾</text></a>
<a xlink:href="https://www.emojiall.com/"><text x="36" y="35" font-size="0.8px" fill="#888da8" text-anchor="end"><title>www.emojiall.com</title>emojiall.com</text></a>
</svg>